<?xml version="1.0" encoding="UTF-8"?>
<svg id="Layer_2" data-name="Layer 2" xmlns="http://www.w3.org/2000/svg" viewBox="0 0 286.71 375.97">
  <defs>
    <style>
      .cls-1 {
        fill: #fff;
      }

      .cls-2 {
        fill: none;
        stroke: #fff;
        stroke-miterlimit: 10;
        stroke-width: 5.46px;
      }

      .cls-3 {
        fill: #188039;
      }

      .cls-4 {
        fill: #34a853;
      }

      .cls-5 {
        fill: #5fbef2;
      }
    </style>
  </defs>
  <g id="Layer_1-2" data-name="Layer 1">
    <g>
      <g>
        <path class="cls-5" d="M243.61,225.04c0,67.27-54.54,121.8-121.8,121.8S0,292.3,0,225.04c0-21.83,5.7-42.33,15.77-60.06h0L121.24,0l106.6,164.98h0c10.07,17.73,15.77,38.23,15.77,60.06Z"/>
        <path class="cls-1" d="M121.8,18.53c-23.86,40.51-49.55,86.23-73.98,126.76-4.25,6.99-8.52,13.85-12.19,20.89-3.66,6.98-6.73,14.11-9.07,21.59-17.75,52.18,3.98,116.89,54.51,142.04,7.15,3.72,14.74,6.59,22.58,8.53,0,0-.21,1.1-.21,1.1-20.46-2.99-40.04-12.59-55.15-26.78C11.16,277.97-.93,218.54,21.23,172.57c7.32-14.98,17.68-27.92,26.55-41.8,24.52-37.2,49.03-75.38,74.02-112.23h0Z"/>
      </g>
      <g>
        <path class="cls-4" d="M286.71,214.44v157.45c0,2.26-1.83,4.09-4.09,4.09H143.94c-2.24,0-4.07-1.83-4.07-4.07V193.01c0-2.25,1.84-4.09,4.09-4.09h118.45c-.44,.93-.3,0,0,0l24.3,25.51Z"/>
        <path class="cls-3" d="M262.41,188.93l24.3,25.51h-21.27c-1.67,0-3.03-1.36-3.03-3.03v-22.48Z"/>
      </g>
      <g>
        <g>
          <path class="cls-2" d="M171.02,262.21v30.56c0,.12,.16,.21,.36,.21h76.39c5.41,0,9.8-2.3,9.8-5.14v-25.63c0-.12-.16-.21-.36-.21h-85.83c-.2,0-.36,.09-.36,.21Z"/>
          <path class="cls-2" d="M171.02,324.41v-30.56c0-.12,.16-.21,.36-.21h76.39c5.41,0,9.8,2.3,9.8,5.14v25.63c0,.12-.16,.21-.36,.21h-85.83c-.2,0-.36-.09-.36-.21Z"/>
        </g>
        <line class="cls-2" x1="214.29" y1="262" x2="214.29" y2="324.62"/>
      </g>
    </g>
  </g>
</svg>